<?xml version="1.0" encoding="UTF-8"?>
<svg width="112px" height="28px" viewBox="0 0 112 28" version="1.1" xmlns="http://www.w3.org/2000/svg" xmlns:xlink="http://www.w3.org/1999/xlink">
    <!-- Generator: Sketch 63.1 (92452) - https://sketch.com -->
    <title>Artboard</title>
    <desc>Created with Sketch.</desc>
    <g id="Artboard" stroke="none" stroke-width="1" fill="none" fill-rule="evenodd">
        <path d="M19.3366174,27 C19.5584747,27 19.8007663,26.9652956 20.0634921,26.8958869 C20.3262178,26.8264781 20.5977011,26.7339332 20.877942,26.6182519 C21.1581828,26.5025707 21.4384236,26.3637532 21.7186645,26.2017995 C21.9989053,26.0398458 22.2733078,25.872108 22.5418719,25.6985861 C23.7095421,24.9119537 24.7049808,24.0588046 25.5281883,23.1391388 C26.3513957,22.219473 27.0432403,21.3055913 27.6037219,20.3974936 C28.1642036,19.4893959 28.6225141,18.6246787 28.9786535,17.8033419 C29.3347929,16.9820051 29.6296296,16.2705656 29.8631637,15.6690231 C30.2835249,14.6047558 30.6309068,13.5144602 30.9053093,12.3981362 C31.1797117,11.2818123 31.3986499,10.2117609 31.5621237,9.18798201 C31.7255975,8.16420308 31.8394454,7.22429306 31.9036672,6.36825193 C31.9678891,5.5122108 32,4.81233933 32,4.26863753 C32,3.58611825 31.9941616,3.06266067 31.9824849,2.69826478 C31.9708082,2.33386889 31.9532932,2.0533419 31.9299398,1.8566838 C31.9182631,1.76413882 31.8773946,1.69762211 31.8073344,1.65713368 C31.7372742,1.61664524 31.6555373,1.5848329 31.5621237,1.56169666 L31.5621237,1.56169666 L31.2818829,1.49228792 C31.1884693,1.46915167 31.118409,1.42866324 31.0717022,1.37082262 C30.9432585,1.20886889 30.8469257,1.04691517 30.7827039,0.88496144 C30.718482,0.723007712 30.6046342,0.595758355 30.4411604,0.503213368 C30.3477468,0.456940874 30.2543332,0.425128535 30.1609195,0.40777635 C30.0675059,0.390424165 29.9653348,0.370179949 29.8544061,0.347043702 C29.7434775,0.323907455 29.6179529,0.297879177 29.4778325,0.268958869 C29.3377121,0.24003856 29.1800766,0.196658098 29.0049261,0.138817481 C28.9115125,0.104113111 28.8268564,0.0723007712 28.7509579,0.0433804627 C28.6750593,0.0144601542 28.6079183,0 28.5495348,0 C28.4561211,0 28.3597884,0.0289203085 28.2605364,0.0867609254 C28.1612844,0.144601542 28.0737092,0.216902314 27.9978106,0.303663239 C27.9219121,0.390424165 27.8606094,0.482969152 27.8139026,0.581298201 C27.7671958,0.679627249 27.7555191,0.775064267 27.7788725,0.867609254 C27.9073162,1.39974293 28.003649,1.94633676 28.0678708,2.50739075 C28.1320927,3.06844473 28.1758803,3.62949871 28.1992337,4.1905527 C28.2225871,4.75160668 28.2342638,5.30109254 28.2342638,5.83901028 L28.2342638,5.83901028 L28.2342638,7.37467866 C28.2342638,8.5777635 28.1612844,9.87628535 28.0153257,11.2702442 C27.8693669,12.6642031 27.6095603,14.063946 27.2359059,15.469473 C26.8622514,16.875 26.3513957,18.2458226 25.7033388,19.5819409 C25.0552819,20.9180591 24.2291553,22.1298201 23.2249589,23.2172237 C22.7345375,23.7377892 22.2733078,24.1079692 21.8412698,24.3277635 C21.4092319,24.5475578 21.093961,24.657455 20.895457,24.657455 C20.7203065,24.657455 20.6327313,24.5533419 20.6327313,24.3451157 C20.6327313,24.2294344 20.6385696,23.9402314 20.6502463,23.4775064 C20.661923,23.0147815 20.6765189,22.4392674 20.6940339,21.750964 C20.711549,21.0626607 20.7407407,20.2847044 20.7816092,19.4170951 C20.8224777,18.5494859 20.8691845,17.6529563 20.9217296,16.7275064 C20.9742748,15.8020566 21.0355774,14.8737147 21.1056377,13.9424807 C21.1756979,13.0112468 21.2574348,12.1407455 21.3508484,11.3309769 C21.6194125,9.9659383 21.7887247,8.67609254 21.8587849,7.46143959 C21.9288451,6.24678663 21.9638752,5.18251928 21.9638752,4.26863753 C21.9638752,3.58611825 21.9580369,3.06266067 21.9463602,2.69826478 C21.9346835,2.33386889 21.9171684,2.0533419 21.893815,1.8566838 C21.8821383,1.76413882 21.8383507,1.69762211 21.7624521,1.65713368 C21.6865535,1.61664524 21.5960591,1.5848329 21.4909688,1.56169666 C21.3858785,1.53856041 21.2837074,1.51542416 21.1844554,1.49228792 C21.0852034,1.46915167 21.012224,1.42866324 20.9655172,1.37082262 C20.8370735,1.20886889 20.7407407,1.04691517 20.6765189,0.88496144 C20.612297,0.723007712 20.4926108,0.595758355 20.3174603,0.503213368 C20.1306331,0.41066838 19.8970991,0.361503856 19.6168582,0.355719794 C19.3366174,0.349935733 19.0096698,0.283419023 18.6360153,0.156169666 C18.5426017,0.121465296 18.4579456,0.0867609254 18.3820471,0.0520565553 C18.3061485,0.0173521851 18.2390075,0 18.180624,0 C18.0872104,0 18.0054735,0.0347043702 17.9354132,0.104113111 C17.865353,0.173521851 17.8098887,0.254498715 17.7690203,0.347043702 C17.7281518,0.439588689 17.6960409,0.535025707 17.6726875,0.633354756 C17.6493341,0.731683805 17.6493341,0.809768638 17.6726875,0.867609254 C17.9762817,1.95501285 18.1747856,3.06844473 18.2681992,4.20790488 C18.3616128,5.34736504 18.4083196,6.40874036 18.4083196,7.39203085 C18.4083196,8.71079692 18.347017,10.0729434 18.2244116,11.4784704 C18.1018062,12.8839974 17.8682722,14.2750643 17.5238095,15.651671 C17.1793468,17.0282776 16.7064404,18.3615039 16.1050903,19.6513496 C15.5037402,20.9411954 14.7301587,22.1298201 13.7843459,23.2172237 C13.3289546,23.7377892 12.9231892,24.1079692 12.5670498,24.3277635 C12.2109104,24.5475578 11.9394271,24.657455 11.7525999,24.657455 C11.5774494,24.657455 11.4898741,24.5533419 11.4898741,24.3451157 C11.4898741,24.1600257 11.4986316,23.8476864 11.5161467,23.4080977 C11.5336617,22.968509 11.5570151,22.4219152 11.5862069,21.7683162 C11.6153986,21.1147172 11.6387521,20.3627892 11.6562671,19.5125321 C11.6737822,18.6622751 11.6825397,17.7339332 11.6825397,16.7275064 C11.6825397,14.6452442 11.6124795,12.2535347 11.4723591,9.55237789 C11.3322386,6.85122108 11.0519978,3.92159383 10.6316366,0.763496144 C10.5966065,0.497429306 10.5090312,0.303663239 10.3689108,0.182197943 C10.2287904,0.0607326478 10.0186097,0 9.73836891,0 C9.57489509,0 9.38222952,0.0173521851 9.16037219,0.0520565553 C7.91096515,0.225578406 6.73161832,0.57840617 5.62233169,1.11053985 C4.51304506,1.64267352 3.54095968,2.29338046 2.70607553,3.06266067 C1.87119139,3.83194087 1.21145776,4.69376607 0.726874658,5.64813625 C0.242291553,6.60250643 0,7.58868895 0,8.6066838 C0,9.35861183 0.0934136107,10.0006427 0.280240832,10.5327763 C0.467068053,11.06491 0.703521255,11.5160668 0.989600438,11.8862468 C1.27567962,12.2564267 1.59386973,12.5514139 1.94417077,12.7712082 C2.29447181,12.9910026 2.63017698,13.1616324 2.95128626,13.2830977 C3.27239555,13.404563 3.56431308,13.4826478 3.82703886,13.5173522 C4.08976464,13.5520566 4.27951104,13.5694087 4.39627805,13.5694087 C4.94508301,13.5694087 5.2194855,13.4537275 5.2194855,13.222365 C5.2194855,13.1413882 5.15526364,13.0430591 5.02681992,12.9273779 C4.8166393,12.7307198 4.57434775,12.473329 4.29994527,12.1552057 C4.02554278,11.8370823 3.762817,11.4669023 3.51176793,11.0446658 C3.26071885,10.6224293 3.05053822,10.1510283 2.88122605,9.63046272 C2.71191388,9.10989717 2.6272578,8.54305913 2.6272578,7.92994859 C2.6272578,7.46722365 2.69731801,7.01028278 2.83743842,6.55912596 C2.97755884,6.10796915 3.21985039,5.68862468 3.56431308,5.30109254 C3.90877577,4.91356041 4.3670863,4.5751928 4.93924466,4.28598972 C5.51140303,3.99678663 6.22952016,3.77699229 7.09359606,3.62660668 L7.09359606,3.62660668 L7.28626163,3.6092545 C7.35632184,3.6092545 7.40010947,3.62949871 7.41762452,3.66998715 C7.43513957,3.71047558 7.4555738,3.78277635 7.4789272,3.88688946 C7.98102536,6.85989717 8.31673052,9.63913882 8.48604269,12.2246144 C8.65535486,14.81009 8.74001095,17.1092545 8.74001095,19.122108 C8.74001095,20.811054 8.70790002,22.2310411 8.64367816,23.3820694 C8.5794563,24.5330977 8.54734537,25.3515424 8.54734537,25.8374036 C8.54734537,25.9530848 8.57069878,26.0774422 8.61740558,26.2104756 C8.66411239,26.343509 8.74001095,26.4678663 8.84510126,26.5835476 C8.95019157,26.6992288 9.09031199,26.7975578 9.26546251,26.8785347 C9.44061303,26.9595116 9.656632,27 9.91351943,27 C10.1237001,27 10.3630724,26.9652956 10.6316366,26.8958869 C10.9002007,26.8264781 11.1775223,26.7339332 11.4636015,26.6182519 C11.7496807,26.5025707 12.0357599,26.3637532 12.3218391,26.2017995 C12.6079183,26.0398458 12.8735632,25.872108 13.1187739,25.6985861 C14.368181,24.8194087 15.3986499,23.8910668 16.2101806,22.9135604 C17.0217114,21.936054 17.6960409,20.9787918 18.2331691,20.0417738 C18.1864623,20.7589974 18.1455939,21.4386247 18.1105638,22.0806555 C18.0755337,22.7226864 18.0492611,23.3010925 18.031746,23.815874 C18.014231,24.3306555 17.9996351,24.7615681 17.9879584,25.1086118 C17.9762817,25.4556555 17.9704433,25.6985861 17.9704433,25.8374036 C17.9704433,25.9530848 17.9937968,26.0774422 18.0405036,26.2104756 C18.0872104,26.343509 18.1631089,26.4678663 18.2681992,26.5835476 C18.3732895,26.6992288 18.51341,26.7975578 18.6885605,26.8785347 C18.863711,26.9595116 19.07973,27 19.3366174,27 Z M37.15,25 C37.55,25 37.9138889,24.8610272 38.2416667,24.5830816 C38.5694444,24.305136 38.8777778,23.8912387 39.1666667,23.3413897 C39.4555556,22.7915408 39.7444444,22.1087613 40.0333333,21.2930514 C40.3222222,20.4773414 40.6333333,19.5256798 40.9666667,18.4380665 C40.9888889,18.3655589 41,18.2870091 41,18.2024169 C41,17.9848943 40.9166667,17.8761329 40.75,17.8761329 C40.5833333,17.8761329 40.4388889,18.0271903 40.3166667,18.3293051 C40.1166667,18.8731118 39.9277778,19.3867069 39.75,19.8700906 C39.5722222,20.3534743 39.4,20.776435 39.2333333,21.1389728 C39.0666667,21.5015106 38.9,21.7885196 38.7333333,22 C38.5666667,22.2114804 38.4,22.3172205 38.2333333,22.3172205 C38.1444444,22.3172205 38.0583333,22.2779456 37.975,22.1993958 C37.8916667,22.1208459 37.8111111,21.9818731 37.7333333,21.7824773 C37.6555556,21.5830816 37.5777778,21.3081571 37.5,20.9577039 C37.4222222,20.6072508 37.35,20.1601208 37.2833333,19.6163142 C37.25,19.3625378 37.1833333,19.2356495 37.0833333,19.2356495 C36.9944444,19.2356495 36.8805556,19.3716012 36.7416667,19.6435045 C36.6027778,19.9154079 36.4277778,20.2175227 36.2166667,20.5498489 C36.0055556,20.8821752 35.7555556,21.18429 35.4666667,21.4561934 C35.1777778,21.7280967 34.85,21.8640483 34.4833333,21.8640483 C34.3277778,21.8640483 34.1777778,21.8247734 34.0333333,21.7462236 C33.8888889,21.6676737 33.7611111,21.5347432 33.65,21.347432 C33.5388889,21.1601208 33.45,20.9123867 33.3833333,20.6042296 C33.3166667,20.2960725 33.2833333,19.9123867 33.2833333,19.4531722 C33.2833333,19.1148036 33.3222222,18.7099698 33.4,18.2386707 C33.4777778,17.7673716 33.5916667,17.3141994 33.7416667,16.8791541 C33.8916667,16.4441088 34.0777778,16.0755287 34.3,15.7734139 C34.5222222,15.4712991 34.7833333,15.3202417 35.0833333,15.3202417 C35.2166667,15.3202417 35.3222222,15.3685801 35.4,15.4652568 C35.4777778,15.5619335 35.5388889,15.6827795 35.5833333,15.8277946 C35.6277778,15.9728097 35.6555556,16.1208459 35.6666667,16.2719033 C35.6777778,16.4229607 35.6833333,16.5528701 35.6833333,16.6616314 C35.6833333,16.939577 35.6527778,17.2296073 35.5916667,17.5317221 C35.5305556,17.8338369 35.5,18.0513595 35.5,18.18429 C35.5,18.3776435 35.6166667,18.4743202 35.85,18.4743202 C36.2277778,18.4743202 36.5666667,18.3534743 36.8666667,18.1117825 C37.1666667,17.8700906 37.4194444,17.5649547 37.625,17.1963746 C37.8305556,16.8277946 37.9861111,16.4320242 38.0916667,16.0090634 C38.1972222,15.5861027 38.25,15.1933535 38.25,14.8308157 C38.25,14.4924471 38.2138889,14.2054381 38.1416667,13.9697885 C38.0694444,13.734139 37.9722222,13.5438066 37.85,13.3987915 C37.7277778,13.2537764 37.5888889,13.1510574 37.4333333,13.0906344 C37.2777778,13.0302115 37.1222222,13 36.9666667,13 C36.7333333,13 36.4527778,13.060423 36.125,13.1812689 C35.7972222,13.3021148 35.4555556,13.4803625 35.1,13.7160121 C34.7444444,13.9516616 34.3805556,14.244713 34.0083333,14.5951662 C33.6361111,14.9456193 33.2833333,15.3444109 32.95,15.7915408 C32.2611111,16.7220544 31.7638889,17.6495468 31.4583333,18.5740181 C31.1527778,19.4984894 31,20.4864048 31,21.5377644 C31,22.021148 31.0527778,22.4743202 31.1583333,22.897281 C31.2638889,23.3202417 31.4055556,23.6858006 31.5833333,23.9939577 C31.7611111,24.3021148 31.9694444,24.5468278 32.2083333,24.7280967 C32.4472222,24.9093656 32.6944444,25 32.95,25 C33.2722222,25 33.5722222,24.9063444 33.85,24.7190332 C34.1277778,24.5317221 34.375,24.3172205 34.5916667,24.0755287 C34.8083333,23.8338369 34.9888889,23.5981873 35.1333333,23.3685801 C35.2777778,23.1389728 35.3666667,22.9818731 35.4,22.897281 C35.4222222,22.8610272 35.4416667,22.8247734 35.4583333,22.7885196 C35.475,22.7522659 35.4944444,22.734139 35.5166667,22.734139 C35.5388889,22.734139 35.5555556,22.7583082 35.5666667,22.8066465 C35.5777778,22.8549849 35.5888889,22.8912387 35.6,22.9154079 C35.6222222,22.9879154 35.6638889,23.1359517 35.725,23.3595166 C35.7861111,23.5830816 35.8777778,23.81571 36,24.0574018 C36.1222222,24.2990937 36.275,24.5166163 36.4583333,24.7099698 C36.6416667,24.9033233 36.8722222,25 37.15,25 Z M42.7061924,26 C42.8317962,26 42.965964,25.9662577 43.1086957,25.898773 C43.2514273,25.8312883 43.3970136,25.7055215 43.5454545,25.5214724 C43.6938955,25.3374233 43.8509003,25.0766871 44.016469,24.7392638 C44.1820378,24.4018405 44.3561704,23.9631902 44.5388669,23.4233129 C44.6758893,23.006135 44.8271849,22.5368098 44.9927536,22.0153374 C45.1583224,21.493865 45.3153272,20.993865 45.4637681,20.5153374 C45.612209,20.0368098 45.7435222,19.607362 45.8577075,19.2269939 C45.9718928,18.8466258 46.0575318,18.5828221 46.1146245,18.4355828 C46.1602986,18.3006135 46.2173913,18.1809816 46.2859025,18.0766871 C46.3544137,17.9723926 46.4400527,17.9202454 46.5428195,17.9202454 C46.6341678,17.9202454 46.7169521,17.9723926 46.7911726,18.0766871 C46.8653931,18.1809816 46.9025033,18.3496933 46.9025033,18.5828221 C46.9025033,18.7300613 46.896794,18.9202454 46.8853755,19.1533742 C46.873957,19.3865031 46.8596838,19.6503067 46.842556,19.9447853 C46.8254282,20.2392638 46.811155,20.5490798 46.7997365,20.8742331 C46.788318,21.1993865 46.7826087,21.5276074 46.7826087,21.8588957 C46.7826087,22.3251534 46.811155,22.7944785 46.8682477,23.2668712 C46.9253404,23.7392638 47.0395257,24.1656442 47.2108037,24.5460123 C47.3820817,24.9263804 47.6161616,25.2361963 47.9130435,25.4754601 C48.2099253,25.7147239 48.5981555,25.8343558 49.0777339,25.8343558 C49.465964,25.8343558 49.8199385,25.6932515 50.1396574,25.4110429 C50.4593764,25.1288344 50.7705314,24.7116564 51.0731225,24.1595092 C51.3757137,23.607362 51.6754502,22.9171779 51.972332,22.0889571 C52.2692139,21.2607362 52.5946421,20.3006135 52.9486166,19.208589 C52.9828722,19.1226994 53,19.0306748 53,18.9325153 C53,18.8343558 52.9743083,18.7576687 52.9229249,18.702454 C52.8715415,18.6472393 52.8115942,18.6196319 52.743083,18.6196319 C52.5375494,18.6196319 52.3833992,18.7730061 52.2806324,19.0797546 C52.0750988,19.6196319 51.886693,20.1319018 51.715415,20.6165644 C51.544137,21.101227 51.372859,21.5337423 51.201581,21.9141104 C51.030303,22.2944785 50.8504611,22.595092 50.6620553,22.8159509 C50.4736495,23.0368098 50.2652613,23.1472393 50.0368906,23.1472393 C49.9569609,23.1472393 49.8770312,23.1165644 49.7971014,23.0552147 C49.7171717,22.993865 49.6429513,22.8773006 49.5744401,22.7055215 C49.5059289,22.5337423 49.4516908,22.291411 49.411726,21.9785276 C49.3717611,21.6656442 49.3517787,21.2576687 49.3517787,20.7546012 C49.3517787,20.4601227 49.3574879,20.1349693 49.3689065,19.7791411 C49.380325,19.4233129 49.3945982,19.0674847 49.411726,18.7116564 C49.4288538,18.3558282 49.4431269,18.0184049 49.4545455,17.6993865 C49.465964,17.3803681 49.4716733,17.1104294 49.4716733,16.8895706 C49.4716733,16.006135 49.380325,15.303681 49.1976285,14.7822086 C49.0149319,14.2607362 48.7180501,14 48.3069829,14 C48.010101,14 47.7446201,14.0920245 47.5105402,14.2760736 C47.2764603,14.4601227 47.0566535,14.7300613 46.8511199,15.0858896 C46.6570048,15.4171779 46.4628898,15.8006135 46.2687747,16.2361963 C46.0746596,16.6717791 45.8891085,17.1257669 45.7121212,17.5981595 C45.5351339,18.0705521 45.3667106,18.5368098 45.2068511,18.9969325 C45.0469917,19.4570552 44.90426,19.8680982 44.7786561,20.2300613 C44.6530523,20.5920245 44.5502855,20.8834356 44.4703557,21.1042945 C44.390426,21.3251534 44.3390426,21.4355828 44.3162055,21.4355828 C44.304787,21.4355828 44.2962231,21.309816 44.2905138,21.0582822 C44.2848046,20.8067485 44.2762407,20.4693252 44.2648221,20.0460123 C44.2534036,19.6226994 44.2448397,19.1257669 44.2391304,18.5552147 C44.2334212,17.9846626 44.2248573,17.3803681 44.2134387,16.7423313 C44.1906017,15.9447853 44.0507246,15.3496933 43.7938076,14.9570552 C43.5368906,14.5644172 43.2428634,14.3680982 42.911726,14.3680982 C42.6605182,14.3680982 42.4292929,14.4509202 42.2180501,14.6165644 C42.0068072,14.7822086 41.8126921,14.9907975 41.6357049,15.2423313 C41.4587176,15.493865 41.2988581,15.7699387 41.1561265,16.0705521 C41.0133948,16.3711656 40.8906456,16.6625767 40.7878788,16.9447853 C40.7193676,17.1165644 40.6422925,17.3220859 40.5566535,17.5613497 C40.4710145,17.8006135 40.3853755,18.0337423 40.2997365,18.2607362 C40.2140975,18.4877301 40.1427317,18.696319 40.085639,18.8865031 C40.0285463,19.0766871 40,19.208589 40,19.2822086 C40,19.4171779 40.0256917,19.5122699 40.0770751,19.5674847 C40.1284585,19.6226994 40.1884058,19.6503067 40.256917,19.6503067 C40.3368467,19.6503067 40.4139218,19.6134969 40.4881423,19.5398773 C40.5623628,19.4662577 40.6337286,19.3374233 40.7022398,19.1533742 C40.9077734,18.601227 41.0533597,18.1932515 41.1389987,17.9294479 C41.2246377,17.6656442 41.3302591,17.5337423 41.455863,17.5337423 C41.5129556,17.5337423 41.5586298,17.6104294 41.5928854,17.7638037 C41.627141,17.9171779 41.6442688,18.1717791 41.6442688,18.5276074 C41.6442688,18.7852761 41.6414141,19.0674847 41.6357049,19.3742331 C41.6299956,19.6809816 41.627141,20 41.627141,20.3312883 C41.627141,21.0306748 41.6299956,21.7453988 41.6357049,22.4754601 C41.6414141,23.2055215 41.6556873,23.8834356 41.6785244,24.5092025 C41.6785244,24.803681 41.71278,25.0460123 41.7812912,25.2361963 C41.8498024,25.4263804 41.9325867,25.5766871 42.0296443,25.6871166 C42.1267018,25.797546 42.2351779,25.8773006 42.3550725,25.9263804 C42.4749671,25.9754601 42.592007,26 42.7061924,26 Z M53.1298701,26 C53.5339105,26 53.9033189,25.9093567 54.2380952,25.7280702 C54.5728716,25.5467836 54.8787879,25.3099415 55.1558442,25.0175439 C55.4329004,24.7251462 55.6839827,24.3918129 55.9090909,24.0175439 C56.1341991,23.6432749 56.3391053,23.2690058 56.5238095,22.8947368 C56.6046176,23.502924 56.7258297,24.005848 56.8874459,24.4035088 C57.049062,24.8011696 57.2279942,25.1140351 57.4242424,25.3421053 C57.6204906,25.5701754 57.8369408,25.7280702 58.0735931,25.8157895 C58.3102453,25.9035088 58.5497835,25.9473684 58.7922078,25.9473684 C59.4040404,25.9473684 59.8946609,25.7602339 60.2640693,25.3859649 C60.6334776,25.0116959 60.968254,24.5204678 61.2683983,23.9122807 C61.5339105,23.374269 61.8051948,22.7426901 62.0822511,22.0175439 C62.3593074,21.2923977 62.6479076,20.4736842 62.9480519,19.5614035 C62.982684,19.4444444 63,19.3625731 63,19.3157895 C63,19.2105263 62.974026,19.1345029 62.9220779,19.0877193 C62.8701299,19.0409357 62.8095238,19.0175439 62.7402597,19.0175439 C62.5324675,19.0175439 62.3766234,19.1637427 62.2727273,19.4561404 C62.030303,20.0760234 61.8109668,20.628655 61.6147186,21.1140351 C61.4184704,21.5994152 61.2337662,22.0087719 61.0606061,22.3421053 C60.8874459,22.6754386 60.7171717,22.9269006 60.5497835,23.0964912 C60.3823954,23.2660819 60.2005772,23.3508772 60.004329,23.3508772 C59.8311688,23.3508772 59.6839827,23.2807018 59.5627706,23.1403509 C59.4415584,23 59.3463203,22.8011696 59.2770563,22.5438596 C59.2077922,22.2865497 59.1587302,21.9853801 59.1298701,21.6403509 C59.1010101,21.2953216 59.0865801,20.9181287 59.0865801,20.5087719 C59.0865801,19.8888889 59.1038961,19.1812865 59.1385281,18.3859649 C59.1731602,17.5906433 59.2222222,16.7397661 59.2857143,15.8333333 C59.3492063,14.9269006 59.4300144,13.9853801 59.5281385,13.0087719 C59.6262626,12.0321637 59.7388167,11.0526316 59.8658009,10.0701754 C59.981241,9.21637427 60.1082251,8.38888889 60.2467532,7.5877193 C60.3852814,6.78654971 60.5180375,6.06725146 60.6450216,5.42982456 C60.7720058,4.79239766 60.8874459,4.25146199 60.991342,3.80701754 C61.0952381,3.3625731 61.1702742,3.05847953 61.2164502,2.89473684 C61.2395382,2.8128655 61.2568543,2.73684211 61.2683983,2.66666667 C61.2799423,2.59649123 61.2857143,2.53216374 61.2857143,2.47368421 C61.2857143,2.28654971 61.2424242,2.16081871 61.1558442,2.09649123 C61.0692641,2.03216374 60.962482,2 60.8354978,2 C60.7200577,2 60.5613276,2.06140351 60.3593074,2.18421053 C60.1572872,2.30701754 59.9119769,2.51461988 59.6233766,2.80701754 C59.4617605,2.97076023 59.3145743,3.10818713 59.1818182,3.21929825 C59.049062,3.33040936 58.9278499,3.43274854 58.8181818,3.52631579 C58.7085137,3.61988304 58.6046176,3.7251462 58.5064935,3.84210526 C58.4083694,3.95906433 58.3189033,4.10526316 58.2380952,4.28070175 C58.0995671,4.56140351 57.981241,4.8625731 57.8831169,5.18421053 C57.7849928,5.50584795 57.6926407,5.89181287 57.6060606,6.34210526 C57.5194805,6.79239766 57.4300144,7.33333333 57.3376623,7.96491228 C57.2453102,8.59649123 57.1414141,9.36842105 57.025974,10.2807018 C56.9336219,11.005848 56.8643579,11.6871345 56.8181818,12.3245614 C56.7720058,12.9619883 56.7258297,13.5672515 56.6796537,14.1403509 C56.6103896,14.128655 56.5584416,14.122807 56.5238095,14.122807 L56.5238095,14.122807 L56.3852814,14.122807 C55.969697,14.122807 55.4906205,14.2602339 54.9480519,14.5350877 C54.4054834,14.8099415 53.8455988,15.2397661 53.2683983,15.8245614 C52.9336219,16.1637427 52.6248196,16.5643275 52.3419913,17.0263158 C52.0591631,17.4883041 51.8196248,17.9912281 51.6233766,18.5350877 C51.4271284,19.0789474 51.2741703,19.6491228 51.1645022,20.245614 C51.0548341,20.8421053 51,21.4502924 51,22.0701754 C51,22.6549708 51.0548341,23.1871345 51.1645022,23.6666667 C51.2741703,24.1461988 51.4242424,24.5584795 51.6147186,24.9035088 C51.8051948,25.248538 52.030303,25.5175439 52.2900433,25.7105263 C52.5497835,25.9035088 52.8297258,26 53.1298701,26 Z M55.3846154,22 C54.9120879,22 54.5631868,21.7650079 54.3379121,21.2950237 C54.1126374,20.8250395 54,20.2306477 54,19.5118483 C54,18.8483412 54.0659341,18.2401264 54.1978022,17.6872038 C54.3296703,17.1342812 54.5054945,16.6587678 54.7252747,16.2606635 C54.9450549,15.8625592 55.1978022,15.5529226 55.4835165,15.3317536 C55.7692308,15.1105845 56.0714286,15 56.3901099,15 C56.7967033,15 57,15.2377567 57,15.7132701 C56.989011,15.9123223 56.978022,16.1556082 56.967033,16.443128 C56.956044,16.7306477 56.9450549,17.0458136 56.9340659,17.3886256 C56.9230769,17.7314376 56.9148352,18.0880727 56.9093407,18.4585308 C56.9038462,18.8289889 56.9010989,19.2022117 56.9010989,19.5781991 C56.8791209,19.8325434 56.8379121,20.1007109 56.7774725,20.3827014 C56.717033,20.6646919 56.6291209,20.9273302 56.5137363,21.1706161 C56.3983516,21.4139021 56.2472527,21.6129542 56.0604396,21.7677725 C55.8736264,21.9225908 55.6483516,22 55.3846154,22 Z M65.2666667,26 C65.7,26 66.1111111,25.9210926 66.5,25.7632777 C66.8888889,25.6054628 67.25,25.3899848 67.5833333,25.1168437 C67.9166667,24.8437026 68.225,24.5280728 68.5083333,24.1699545 C68.7916667,23.8118361 69.05,23.4324734 69.2833333,23.0318665 C69.4722222,22.6798179 69.6666667,22.3034901 69.8666667,21.9028832 C70.0333333,21.5508346 70.2138889,21.1502276 70.4083333,20.7010622 C70.6027778,20.2518968 70.7833333,19.7723824 70.95,19.262519 C70.9833333,19.1775417 71,19.0864947 71,18.9893778 C71,18.892261 70.975,18.8194234 70.925,18.7708649 C70.875,18.7223065 70.8166667,18.6980273 70.75,18.6980273 C70.65,18.6980273 70.5666667,18.737481 70.5,18.8163885 C70.4333333,18.8952959 70.3666667,19.0075873 70.3,19.1532625 C70.1111111,19.5781487 69.8972222,20.0698027 69.6583333,20.6282246 C69.4194444,21.1866464 69.1416667,21.7207891 68.825,22.2306525 C68.5083333,22.7405159 68.1527778,23.1714719 67.7583333,23.5235205 C67.3638889,23.875569 66.9166667,24.0515933 66.4166667,24.0515933 C66.0944444,24.0515933 65.7777778,23.9241275 65.4666667,23.6691958 C65.1555556,23.414264 64.9,23.0136571 64.7,22.4673748 C65.0777778,22.1396055 65.4944444,21.7268589 65.95,21.2291351 C66.4055556,20.7314112 66.8333333,20.1911988 67.2333333,19.6084977 C67.6333333,19.0257967 67.9666667,18.4279211 68.2333333,17.814871 C68.5,17.2018209 68.6333333,16.6100152 68.6333333,16.0394537 C68.6333333,15.383915 68.475,14.8801214 68.1583333,14.5280728 C67.8416667,14.1760243 67.4722222,14 67.05,14 C66.7833333,14 66.4944444,14.0789074 66.1833333,14.2367223 C65.8722222,14.3945372 65.5527778,14.616085 65.225,14.9013657 C64.8972222,15.1866464 64.5722222,15.5204856 64.25,15.9028832 C63.9277778,16.2852807 63.6222222,16.6949924 63.3333333,17.1320182 C63.1666667,17.3869499 63.0027778,17.6843703 62.8416667,18.0242792 C62.6805556,18.3641882 62.5361111,18.7283763 62.4083333,19.1168437 C62.2805556,19.5053111 62.1805556,19.9119879 62.1083333,20.3368741 C62.0361111,20.7617602 62,21.1805766 62,21.5933232 C62,22.491654 62.1083333,23.2261002 62.325,23.7966616 C62.5416667,24.3672231 62.8138889,24.8163885 63.1416667,25.1441578 C63.4694444,25.4719272 63.825,25.6965099 64.2083333,25.8179059 C64.5916667,25.939302 64.9444444,26 65.2666667,26 Z M64.1451613,21 C64.0483871,20.4845361 64,19.8888889 64,19.2130584 C64,18.6975945 64.0403226,18.242268 64.1209677,17.847079 C64.2016129,17.45189 64.3037634,17.1168385 64.4274194,16.8419244 C64.5510753,16.5670103 64.6801075,16.3579611 64.8145161,16.2147766 C64.9489247,16.0715922 65.0698925,16 65.1774194,16 C65.3602151,16 65.5430108,16.1260023 65.7258065,16.3780069 C65.9086022,16.6300115 66,16.9851088 66,17.443299 C66,17.7411226 65.9435484,18.0504009 65.8306452,18.371134 C65.7177419,18.6918671 65.5725806,19.0068729 65.3951613,19.3161512 C65.2177419,19.6254296 65.0188172,19.9261168 64.7983871,20.2182131 C64.577957,20.5103093 64.3602151,20.7709049 64.1451613,21 Z M74.8639053,25 C75.3491124,25 75.7840237,24.8446363 76.1686391,24.5339088 C76.5532544,24.2231813 76.9053254,23.7916153 77.2248521,23.2392109 C77.5443787,22.6868064 77.8461538,22.0308261 78.1301775,21.27127 C78.4142012,20.5117139 78.6923077,19.6831073 78.964497,18.7854501 C78.9763314,18.7394164 78.9852071,18.6991369 78.9911243,18.6646116 C78.9970414,18.6300863 79,18.595561 79,18.5610358 C79,18.3538841 78.9053254,18.2503083 78.7159763,18.2503083 C78.5147929,18.2503083 78.3609467,18.3941636 78.2544379,18.6818742 C78.112426,19.0846691 77.9556213,19.5047267 77.7840237,19.9420469 C77.612426,20.379367 77.4319527,20.7821619 77.2426036,21.1504316 C77.0532544,21.5187012 76.8550296,21.8236745 76.647929,22.0653514 C76.4408284,22.3070284 76.2307692,22.4278668 76.0177515,22.4278668 C75.7218935,22.4278668 75.5295858,22.3329223 75.4408284,22.1430333 C75.352071,21.9531443 75.3076923,21.6568023 75.3076923,21.2540074 C75.3076923,20.8857378 75.3284024,20.4081381 75.3698225,19.8212084 C75.4112426,19.2342787 75.4585799,18.6444718 75.5118343,18.0517879 C75.5650888,17.459104 75.6153846,16.918208 75.6627219,16.4290999 C75.7100592,15.9399918 75.7337278,15.5976161 75.7337278,15.4019729 C75.7337278,14.9531443 75.6715976,14.6136457 75.5473373,14.3834772 C75.4230769,14.1533087 75.1715976,14.0382244 74.7928994,14.0382244 C74.5680473,14.0382244 74.295858,14.1015208 73.9763314,14.2281134 L73.9763314,14.2281134 L73.1065089,14.6078915 C72.9526627,14.6654336 72.8461538,14.6942047 72.7869822,14.6942047 C72.704142,14.6942047 72.6627219,14.6424168 72.6627219,14.5388409 C72.6627219,14.458282 72.6863905,14.3460748 72.7337278,14.2022195 C72.7810651,14.0583642 72.8313609,13.8972462 72.8846154,13.7188656 C72.9378698,13.540485 72.9881657,13.3448418 73.035503,13.1319359 C73.0828402,12.91903 73.1065089,12.7090012 73.1065089,12.5018496 C73.1065089,12.1105631 73.0147929,11.7624332 72.8313609,11.4574599 C72.647929,11.1524866 72.4260355,11 72.1656805,11 C71.964497,11 71.7366864,11.1150843 71.4822485,11.3452528 C71.2278107,11.5754213 70.9911243,11.8717633 70.7721893,12.2342787 C70.5532544,12.5967941 70.3698225,12.9967119 70.2218935,13.4340321 C70.0739645,13.8713522 70,14.3029182 70,14.72873 C70,15.2466091 70.0857988,15.6983148 70.2573964,16.0838471 C70.4289941,16.4693794 70.6331361,16.7139334 70.8698225,16.8175092 C70.7988166,17.1742704 70.7307692,17.4734895 70.6656805,17.7151665 C70.6005917,17.9568434 70.5414201,18.1553637 70.4881657,18.3107275 C70.4349112,18.4660912 70.3905325,18.5926839 70.3550296,18.6905055 C70.3195266,18.7883272 70.3017751,18.8717633 70.3017751,18.9408138 C70.3017751,19.0443896 70.3284024,19.1249486 70.3816568,19.1824908 C70.4349112,19.2400329 70.4970414,19.2688039 70.5680473,19.2688039 C70.6627219,19.2688039 70.7455621,19.24291 70.816568,19.1911221 C70.887574,19.1393342 70.9704142,19.0041102 71.0650888,18.7854501 C71.1005917,18.6818742 71.1390533,18.5811755 71.1804734,18.4833539 C71.2218935,18.3855323 71.2721893,18.2675709 71.3313609,18.1294698 C71.3905325,17.9913687 71.4615385,17.8273736 71.5443787,17.6374846 C71.6272189,17.4475956 71.7337278,17.2145499 71.8639053,16.9383477 C72.0769231,16.9153309 72.2455621,16.8951911 72.3698225,16.8779285 C72.4940828,16.8606658 72.5887574,16.8491574 72.6538462,16.8434032 C72.7189349,16.837649 72.7633136,16.8318948 72.7869822,16.8261406 C72.8106509,16.8203864 72.8343195,16.8175092 72.8579882,16.8175092 C72.9881657,16.8175092 73.0946746,16.8692972 73.1775148,16.972873 C73.260355,17.0764488 73.3017751,17.2951089 73.3017751,17.6288533 C73.3017751,17.9395808 73.2810651,18.2560625 73.239645,18.5782984 C73.1982249,18.9005343 73.1508876,19.2342787 73.0976331,19.5795314 C73.0443787,19.9247842 72.9970414,20.2815454 72.9556213,20.649815 C72.9142012,21.0180847 72.8934911,21.4093711 72.8934911,21.8236745 C72.8934911,22.7788738 73.0739645,23.5470612 73.4349112,24.1282367 C73.795858,24.7094122 74.2721893,25 74.8639053,25 Z M80.7232376,25 C80.9669278,25 81.1801567,24.9710447 81.3629243,24.9131341 C81.5456919,24.8552235 81.7254134,24.7596711 81.9020888,24.6264767 C82.0787641,24.4932824 82.2554395,24.3166551 82.4321149,24.0965949 C82.6087903,23.8765346 82.7915579,23.6043549 82.9804178,23.2800556 C83.1692776,22.9557563 83.3672759,22.5677554 83.5744125,22.1160528 C83.7937337,21.641186 84.016101,21.1228863 84.2415144,20.5611536 C84.4669278,19.9994209 84.7014795,19.3826732 84.9451697,18.7109104 C84.9817232,18.6298355 85,18.5487607 85,18.4676859 C85,18.375029 84.9725849,18.3026407 84.9177546,18.2505212 C84.8629243,18.1984017 84.7989556,18.1723419 84.7258486,18.1723419 C84.6283725,18.1723419 84.5369887,18.2099838 84.4516971,18.2852675 C84.3664056,18.3605513 84.2932985,18.4676859 84.232376,18.6066713 C84.0130548,19.1394487 83.8120104,19.6345842 83.6292428,20.0920778 C83.4464752,20.5495715 83.2697998,20.9491545 83.0992167,21.290827 C82.9286336,21.6324994 82.7519582,21.9017836 82.5691906,22.0986796 C82.386423,22.2955756 82.1792863,22.3940236 81.9477807,22.3940236 C81.5335074,22.3940236 81.2380331,22.1652768 81.0613577,21.7077832 C80.8846823,21.2502896 80.7963446,20.6219597 80.7963446,19.8227936 C80.7963446,19.5448228 80.8085292,19.174195 80.8328982,18.7109104 C80.8572672,18.2476257 80.8877285,17.735117 80.924282,17.1733843 C80.9608355,16.6116516 81.0004352,16.0151726 81.0430809,15.3839472 C81.0857267,14.7527218 81.1314186,14.1330785 81.1801567,13.5250174 C81.2288947,12.9169562 81.2776327,12.3407459 81.3263708,11.7963864 C81.3751088,11.2520269 81.4177546,10.7829511 81.4543081,10.3891591 C81.6248912,8.42019921 81.7863359,6.80738939 81.9386423,5.55072967 C82.0909487,4.29406996 82.2219321,3.29511235 82.3315927,2.55385685 C82.4412533,1.81260134 82.5265448,1.27403289 82.5874674,0.938151494 C82.6483899,0.602270095 82.6788512,0.370627751 82.6788512,0.243224461 C82.6788512,0.0810748205 82.5935596,0 82.4229765,0 C82.3133159,0 82.2006092,0.0376418809 82.0848564,0.112925643 C81.9691036,0.188209405 81.8503046,0.277970813 81.7284595,0.382209868 C81.6066144,0.486448923 81.4847694,0.599374566 81.3629243,0.720986796 C81.2410792,0.842599027 81.1253264,0.95552467 81.0156658,1.05976372 C80.7110531,1.32615242 80.4369017,1.57516794 80.1932115,1.80681028 C79.9495213,2.03845263 79.7850305,2.35696085 79.6997389,2.76233495 C79.6266319,3.14454482 79.5413403,3.67153116 79.4438642,4.34329395 C79.3463882,5.01505675 79.2489121,5.7505212 79.151436,6.54968728 C79.05396,7.34885337 78.95953,8.16828816 78.8681462,9.00799166 C78.7767624,9.84769516 78.7006092,10.6208015 78.6396867,11.3273106 C78.5422106,12.4739402 78.4538729,13.5626593 78.3746736,14.5934677 C78.2954743,15.6242761 78.2284595,16.54795 78.1736292,17.3644892 C78.118799,18.1810285 78.0761532,18.8788511 78.0456919,19.4579569 C78.0152306,20.0370628 78,20.4482279 78,20.6914524 C78,21.5948575 78.0913838,22.3274265 78.2741514,22.8891591 C78.4569191,23.4508918 78.6853786,23.8881167 78.95953,24.2008339 C79.2336815,24.5135511 79.5291558,24.7249247 79.845953,24.8349548 C80.1627502,24.9449849 80.4551784,25 80.7232376,25 Z M86.183432,25 C86.5147929,25 86.8313609,24.9103575 87.1331361,24.7310726 C87.4349112,24.5517876 87.7218935,24.2539432 87.9940828,23.8375394 C88.2662722,23.4211356 88.535503,22.8659306 88.8017751,22.1719243 C89.0680473,21.477918 89.3313609,20.6161935 89.591716,19.5867508 C89.5680473,19.829653 89.556213,20.0899054 89.556213,20.3675079 L89.556213,20.3675079 L89.556213,21.2350158 C89.556213,21.6398528 89.591716,22.06204 89.6627219,22.5015773 C89.7337278,22.9411146 89.852071,23.3430599 90.0177515,23.7074132 C90.183432,24.0717666 90.408284,24.3725026 90.6923077,24.6096215 C90.9763314,24.8467403 91.3254438,24.9652997 91.739645,24.9652997 C92.2248521,24.9652997 92.647929,24.8322818 93.0088757,24.5662461 C93.3698225,24.3002103 93.704142,23.9040484 94.0118343,23.3777603 C94.3195266,22.8514721 94.6242604,22.1979495 94.9260355,21.4171924 C95.2278107,20.6364353 95.5680473,19.7313354 95.9467456,18.7018927 C95.9822485,18.6209253 96,18.5399579 96,18.4589905 C96,18.3664564 95.9733728,18.294164 95.9201183,18.2421136 C95.8668639,18.1900631 95.8047337,18.1640379 95.7337278,18.1640379 C95.6390533,18.1640379 95.5502959,18.2016299 95.4674556,18.2768139 C95.3846154,18.3519979 95.3136095,18.4589905 95.2544379,18.5977918 C95.0177515,19.1992639 94.8017751,19.7371188 94.6065089,20.2113565 C94.4112426,20.6855941 94.2218935,21.0875394 94.0384615,21.4171924 C93.8550296,21.7468454 93.6745562,21.9984227 93.4970414,22.1719243 C93.3195266,22.3454259 93.1301775,22.4321767 92.9289941,22.4321767 C92.8461538,22.4321767 92.7633136,22.4032597 92.6804734,22.3454259 C92.5976331,22.287592 92.5207101,22.1777077 92.4497041,22.0157729 C92.3786982,21.8538381 92.3224852,21.6253943 92.2810651,21.3304416 C92.239645,21.035489 92.2189349,20.6508938 92.2189349,20.1766562 C92.2189349,19.6561514 92.2307692,19.1848055 92.2544379,18.7626183 C92.2781065,18.3404311 92.3017751,17.9442692 92.3254438,17.5741325 C92.3491124,17.2039958 92.3727811,16.8454259 92.3964497,16.4984227 C92.4201183,16.1514196 92.4319527,15.7812829 92.4319527,15.3880126 C92.4319527,14.8443743 92.3757396,14.4771293 92.2633136,14.2862776 C92.1508876,14.0954259 91.964497,14 91.704142,14 C91.4792899,14 91.239645,14.075184 90.9852071,14.2255521 C90.7307692,14.3759201 90.5266272,14.5667718 90.3727811,14.7981073 C90.2189349,15.0410095 90.0680473,15.3995794 89.9201183,15.873817 C89.7721893,16.3480547 89.6272189,16.8656677 89.4852071,17.4266562 C89.3431953,17.9876446 89.1952663,18.5630915 89.0414201,19.1529968 C88.887574,19.7429022 88.7248521,20.2807571 88.5532544,20.7665615 C88.3816568,21.2523659 88.1952663,21.6485279 87.9940828,21.9550473 C87.7928994,22.2615668 87.5739645,22.4148265 87.3372781,22.4148265 C87.1715976,22.4148265 87.0414201,22.3425342 86.9467456,22.1979495 C86.852071,22.0533649 86.7840237,21.8509464 86.7426036,21.590694 C86.7011834,21.3304416 86.6745562,21.0210305 86.6627219,20.6624606 C86.6508876,20.3038906 86.6449704,19.904837 86.6449704,19.4652997 C86.6449704,18.6787592 86.6656805,17.9413775 86.7071006,17.2531546 C86.7485207,16.5649317 86.8224852,15.8506835 86.9289941,15.1104101 C86.9526627,14.9831756 86.9704142,14.8732913 86.9822485,14.7807571 C86.9940828,14.6882229 87,14.6072555 87,14.5378549 C87,14.2833859 86.9289941,14.1561514 86.7869822,14.1561514 C86.739645,14.1561514 86.6597633,14.1850683 86.5473373,14.2429022 C86.4349112,14.3007361 86.3195266,14.3643533 86.2011834,14.4337539 C86.0828402,14.5031546 85.9733728,14.5667718 85.8727811,14.6246057 C85.7721893,14.6824395 85.704142,14.7113565 85.6686391,14.7113565 C85.6094675,14.7113565 85.5532544,14.6795478 85.5,14.6159306 C85.4467456,14.5523134 85.3786982,14.5205047 85.295858,14.5205047 C85.2366864,14.5205047 85.1627219,14.5667718 85.0739645,14.659306 C84.9852071,14.7518402 84.8757396,14.8559411 84.7455621,14.9716088 C84.6863905,15.0294427 84.6272189,15.1566772 84.5680473,15.3533123 C84.5088757,15.5499474 84.4615385,15.7176656 84.4260355,15.8564669 C84.3431953,16.1687697 84.2751479,16.5186646 84.2218935,16.9061514 C84.1686391,17.2936383 84.1242604,17.6869085 84.0887574,18.0859621 C84.0532544,18.4850158 84.0295858,18.8667192 84.0177515,19.2310726 C84.0059172,19.5954259 84,19.904837 84,20.159306 C84,21.1887487 84.0680473,22.0186646 84.204142,22.6490536 C84.3402367,23.2794427 84.5147929,23.7681388 84.7278107,24.115142 C84.9408284,24.4621451 85.1745562,24.6963722 85.4289941,24.8178233 C85.683432,24.9392744 85.9349112,25 86.183432,25 Z M96.3987603,25 C96.9690083,25 97.4679752,24.8372093 97.8956612,24.5116279 C98.3233471,24.1860465 98.6983471,23.8004896 99.0206612,23.3549572 C99.3181818,23.2407181 99.6373967,23.0722154 99.9783058,22.8494492 C100.319215,22.626683 100.663223,22.3325173 101.010331,21.9669523 C101.357438,21.6013872 101.695248,21.1558548 102.02376,20.630355 C102.352273,20.1048552 102.659091,19.4708282 102.944215,18.7282742 C102.981405,18.625459 103,18.5397797 103,18.4712362 C103,18.2884537 102.913223,18.1970624 102.739669,18.1970624 C102.528926,18.1970624 102.355372,18.3398613 102.219008,18.625459 C101.822314,19.5393717 101.422521,20.247654 101.019628,20.750306 C100.616736,21.252958 100.285124,21.6128111 100.024793,21.8298654 L100.024793,21.8298654 L99.7644628,22.0354957 L100.154959,21.1101591 C100.204545,20.9844961 100.247934,20.8274174 100.285124,20.6389229 C100.322314,20.4504284 100.340909,20.2762138 100.340909,20.1162791 C100.340909,19.6022032 100.266529,19.1481028 100.117769,18.753978 C99.9690083,18.3598531 99.7272727,17.9857201 99.392562,17.6315789 C98.6859504,16.8890249 98.0971074,16.2207262 97.6260331,15.626683 C97.1549587,15.0326397 96.9194215,14.5699714 96.9194215,14.2386781 C96.9194215,14.1472868 96.928719,14.0587515 96.947314,13.9730722 C96.9659091,13.8873929 96.981405,13.8217054 96.9938017,13.7760098 C97.142562,13.2847817 97.2169421,12.8449612 97.2169421,12.4565483 C97.2169421,12.2851897 97.1952479,12.1109751 97.1518595,11.9339045 C97.1084711,11.7568339 97.0464876,11.5997552 96.9659091,11.4626683 C96.8853306,11.3255814 96.786157,11.2141983 96.6683884,11.128519 C96.5506198,11.0428397 96.4173554,11 96.268595,11 C96.0206612,11 95.7634298,11.125663 95.4969008,11.376989 C95.2303719,11.628315 94.9855372,11.9396165 94.7623967,12.3108935 C94.5392562,12.6821705 94.356405,13.0820073 94.213843,13.5104039 C94.071281,13.9388005 94,14.3300694 94,14.6842105 C94,15.1754386 94.0836777,15.5781314 94.2510331,15.8922889 C94.4183884,16.2064463 94.607438,16.4834761 94.8181818,16.7233782 C94.7809917,16.8604651 94.7376033,17.0261118 94.6880165,17.2203182 C94.6384298,17.380253 94.5795455,17.5773154 94.5113636,17.8115055 C94.4431818,18.0456956 94.3595041,18.3113015 94.2603306,18.6083231 C94.2355372,18.6768666 94.2231405,18.751122 94.2231405,18.8310894 C94.2231405,19.0481436 94.322314,19.1566707 94.5206612,19.1566707 C94.6322314,19.1566707 94.7221074,19.119543 94.7902893,19.0452876 C94.8584711,18.9710322 94.9359504,18.8196654 95.0227273,18.5911873 C95.0847107,18.4541004 95.1466942,18.2913097 95.2086777,18.1028152 C95.2706612,17.9143207 95.3450413,17.6886985 95.4318182,17.4259486 C95.5433884,17.5858833 95.6983471,17.7886577 95.8966942,18.0342717 C96.0950413,18.2798858 96.3088843,18.5483476 96.5382231,18.8396573 C96.767562,19.130967 97,19.4394125 97.2355372,19.7649939 C97.4710744,20.0905753 97.6849174,20.4104447 97.8770661,20.7246022 C98.0692149,21.0387597 98.2272727,21.3357813 98.3512397,21.6156671 C98.4752066,21.8955528 98.5371901,22.1383109 98.5371901,22.3439412 C98.5371901,22.4696042 98.4938017,22.6124031 98.4070248,22.7723378 C98.2334711,22.8294574 98.0599174,22.872297 97.8863636,22.9008568 C97.7128099,22.9294166 97.5330579,22.9551204 97.3471074,22.9779682 C97.1735537,22.7037944 96.9628099,22.2582619 96.714876,21.6413709 C96.5413223,21.2301102 96.3801653,20.9102407 96.231405,20.6817625 C96.0826446,20.4532844 95.9338843,20.3390453 95.785124,20.3390453 C95.6735537,20.3390453 95.5340909,20.3933089 95.3667355,20.501836 C95.1993802,20.6103631 95.0413223,20.7731538 94.892562,20.9902081 C94.7438017,21.2072623 94.6167355,21.4700122 94.5113636,21.7784578 C94.4059917,22.0869033 94.3533058,22.4353325 94.3533058,22.8237454 C94.3533058,23.0293758 94.3904959,23.2607099 94.464876,23.5177479 C94.5392562,23.7747858 94.6570248,24.0118319 94.8181818,24.2288862 C94.9793388,24.4459404 95.1900826,24.628723 95.4504132,24.7772338 C95.7107438,24.9257446 96.0268595,25 96.3987603,25 Z M105.122083,25 C105.574506,25 105.962298,24.8738532 106.285458,24.6215596 C106.608618,24.3692661 106.910233,23.9880224 107.190305,23.4778287 C107.470377,22.9676351 107.747756,22.3312946 108.022442,21.5688073 C108.297127,20.8063201 108.606822,19.9092762 108.951526,18.8776758 C108.962298,18.8552497 108.97307,18.8216106 108.983842,18.7767584 C108.994614,18.7319062 109,18.6926606 109,18.6590214 C109,18.4571865 108.913824,18.3562691 108.741472,18.3562691 C108.558348,18.3562691 108.418312,18.4964322 108.321364,18.7767584 C108.127469,19.3149847 107.947038,19.8083588 107.780072,20.2568807 C107.613106,20.7054027 107.448833,21.0922528 107.287253,21.4174312 C107.125673,21.7426096 106.964093,21.9977064 106.802513,22.1827217 C106.640934,22.367737 106.463196,22.4602446 106.2693,22.4602446 C106.05386,22.4602446 105.862657,22.3761468 105.695691,22.2079511 C105.528725,22.0397554 105.385996,21.8014781 105.267504,21.4931193 C105.149013,21.1847604 105.060144,20.8175331 105.000898,20.3914373 C104.941652,19.9653415 104.912029,19.4943935 104.912029,18.9785933 C104.912029,17.969419 104.973968,16.8200815 105.097846,15.530581 C105.221724,14.2410805 105.348294,12.9011213 105.477558,11.5107034 C105.876122,11.4658512 106.261221,11.4238022 106.632855,11.3845566 C107.004488,11.3453109 107.335727,11.3060652 107.626571,11.2668196 C107.917415,11.2275739 108.165171,11.1883282 108.369838,11.1490826 C108.574506,11.1098369 108.714542,11.067788 108.789946,11.0229358 C108.843806,11.0005097 108.89228,10.9472477 108.935368,10.8631498 C108.978456,10.779052 109,10.6921509 109,10.6024465 C109,10.5015291 108.978456,10.4230377 108.935368,10.3669725 C108.89228,10.3109072 108.841113,10.2604485 108.781867,10.2155963 C108.722621,10.1707441 108.663375,10.1202854 108.604129,10.0642202 C108.544883,10.0081549 108.493716,9.93527013 108.450628,9.84556575 C108.396768,9.71100917 108.337522,9.61569827 108.27289,9.55963303 C108.208259,9.50356779 108.084381,9.44189602 107.901257,9.37461774 C107.815081,9.35219164 107.575404,9.28771662 107.182226,9.18119266 C106.789048,9.07466871 106.301616,8.99898063 105.719928,8.95412844 C105.795332,8.31498471 105.881508,7.71228338 105.978456,7.14602446 C106.075404,6.57976555 106.169659,6.06957187 106.261221,5.61544343 C106.352783,5.16131498 106.433573,4.77726809 106.503591,4.46330275 C106.573609,4.14933741 106.624776,3.93068298 106.657092,3.80733945 C106.667864,3.76248726 106.678636,3.70922528 106.689408,3.64755352 C106.70018,3.58588175 106.705566,3.51019368 106.705566,3.4204893 C106.705566,3.26350663 106.665171,3.15417941 106.584381,3.09250765 C106.503591,3.03083588 106.414722,3 106.317774,3 C106.220826,3.01121305 106.078097,3.06447503 105.889587,3.15978593 C105.701077,3.25509684 105.472172,3.44291539 105.202873,3.72324159 C104.955117,3.98114169 104.734291,4.22502548 104.540395,4.45489297 C104.346499,4.68476045 104.184919,5.01834862 104.055655,5.45565749 C103.991023,5.64627931 103.929084,5.85652396 103.869838,6.08639144 C103.810592,6.31625892 103.748654,6.57415902 103.684022,6.86009174 C103.61939,7.14602446 103.557451,7.47120285 103.498205,7.83562691 C103.438959,8.20005097 103.382406,8.617737 103.328546,9.08868502 C102.843806,9.18960245 102.423698,9.32415902 102.068223,9.49235474 C101.712747,9.66055046 101.413824,9.84276249 101.171454,10.0389908 C100.929084,10.2352192 100.735189,10.4286442 100.589767,10.6192661 C100.444345,10.8098879 100.333932,10.9724771 100.258528,11.1070336 C100.183124,11.2303772 100.121185,11.3593272 100.072711,11.4938838 C100.024237,11.6284404 100,11.7573904 100,11.8807339 C100,12.0152905 100.02693,12.1302243 100.08079,12.2255352 C100.13465,12.3208461 100.201975,12.3993374 100.282765,12.4610092 C100.363555,12.5226809 100.444345,12.5675331 100.525135,12.5955657 C100.605925,12.6235984 100.67325,12.6376147 100.72711,12.6376147 C100.813285,12.6376147 100.869838,12.6179918 100.896768,12.5787462 C100.923698,12.5395005 100.939856,12.4946483 100.945242,12.4441896 C100.950628,12.3937309 100.953321,12.3376656 100.953321,12.2759939 C100.953321,12.2143221 100.980251,12.1610601 101.034111,12.116208 C101.087971,12.0601427 101.249551,12.0068807 101.518851,11.956422 C101.788151,11.9059633 102.213645,11.8470948 102.795332,11.7798165 C102.849192,11.7798165 102.897666,11.7770133 102.940754,11.7714067 C102.983842,11.7658002 103.032316,11.7573904 103.086176,11.7461774 C103.021544,12.4862385 102.962298,13.2234964 102.908438,13.9579511 C102.854578,14.6924057 102.808797,15.3876147 102.771095,16.043578 C102.733393,16.6995413 102.701077,17.2938328 102.674147,17.8264526 C102.647217,18.3590724 102.633752,18.7879715 102.633752,19.1131498 C102.633752,20.3465851 102.714542,21.3473496 102.876122,22.1154434 C103.037702,22.8835372 103.24237,23.480632 103.490126,23.9067278 C103.737882,24.3328236 104.007181,24.6215596 104.298025,24.7729358 C104.588869,24.9243119 104.863555,25 105.122083,25 Z" id="Wanderlust" fill="#292A2B" fill-rule="nonzero"></path>
    </g>
</svg>